<?xml version="1.0" encoding="utf-8"?>
<!-- Generator: Adobe Illustrator 16.0.0, SVG Export Plug-In . SVG Version: 6.00 Build 0)  -->
<!DOCTYPE svg PUBLIC "-//W3C//DTD SVG 1.1//EN" "http://www.w3.org/Graphics/SVG/1.1/DTD/svg11.dtd">
<svg version="1.1" id="brad" xmlns="http://www.w3.org/2000/svg" xmlns:xlink="http://www.w3.org/1999/xlink" x="0px" y="0px"
	 width="600px" height="1200px" viewBox="0 0 600 1200" enable-background="new 0 0 600 1200" xml:space="preserve">
<g id="Body">
	<g id="Lets">
		<g id="Pants">
			<polygon fill="#324956" stroke="#000000" stroke-width="5" stroke-miterlimit="10" points="167.333,451.5 167.333,573.5 
				248.667,492.167 347,492.167 429.389,574.555 429.389,451.5 			"/>
		</g>
		<g id="Belt">
			<polyline fill="#A1B3B4" stroke="#000000" stroke-width="4" stroke-miterlimit="10" points="167.333,436.5 431.333,436.5 
				431.333,457 167.333,457 167.333,436.5 			"/>
		</g>
	</g>
	<g id="Torso">
		<g id="Base_2_">
			<path fill="#FBE8C9" stroke="#000000" stroke-width="4" stroke-miterlimit="10" d="M284.554,259.5c0,0-117.5,58-107,171.5
				c70,0.5,246-2.602,246-2.602s15.5-92.398,0-124.898S371.055,222,284.554,259.5z"/>
		</g>
		<g id="Shirt">
			<g id="Shirt_1_">
				<path fill="#A9E2E2" stroke="#000000" stroke-width="4" stroke-miterlimit="10" d="M215.333,305.667
					c0,0,61.666,64.001,72.333,75.667C301,368,344.333,325,355.333,294c38,6.333,55.334,11,61.667,25s13.999,94.335,14.333,122.001
					c-28.729,0-264,0-264,0S169,332.667,174,318.667S203,307.334,215.333,305.667z"/>
			</g>
			<g>
				<path fill="#FBE8C9" stroke="#000000" stroke-width="4" stroke-miterlimit="10" d="M170.853,406.601
					c0.668,32.735,2.777,67.639,6.147,81.399c0,0,11.5-11.5,18.5-18.5c0,0,4.984-46.909,13.764-78.5
					C197.423,393.355,184.582,402.353,170.853,406.601z"/>
				<path fill="#FBE8C9" stroke="#000000" stroke-width="4" stroke-miterlimit="10" d="M402.551,386.39
					c0.413,21.591-0.051,60.378-0.051,80.61c9.5,5.5,20,15,20,15s9.861-45.925,11.922-90.586
					C427.609,390.133,415.395,387.979,402.551,386.39z"/>
			</g>
			<g id="Sleeves">
				<path fill="#A9E2E2" stroke="#000000" stroke-width="4" stroke-miterlimit="10" d="M395.5,370c0,0,2,10.779,1.5,16.39
					c9.513,0.513,37.5,5.11,42.5,7.11c1-17-2.156-45-5.078-56.5S399,304.961,386.5,303.98"/>
				<path fill="#A9E2E2" stroke="#000000" stroke-width="4" stroke-miterlimit="10" d="M216,380c0,0-1.76,8.72-2,14.5
					c-6.736,3.297-42.333,11.5-49.667,14.5c-0.333-16.5-2.627-65.5,6.52-79s38.411-44.549,38.411-44.549"/>
				
					<polyline opacity="0.2" fill="none" stroke="#000000" stroke-width="4" stroke-miterlimit="10" enable-background="new    " points="
					275.5,382.5 286.5,393.5 298.361,382.5 				"/>
				
					<line opacity="0.2" fill="none" stroke="#000000" stroke-width="4" stroke-miterlimit="10" enable-background="new    " x1="320.5" y1="359" x2="338.5" y2="338.517"/>
				<path opacity="0.2" fill="none" stroke="#000000" stroke-width="4" stroke-miterlimit="10" enable-background="new    " d="
					M249,351c0,0-17.5-19.5-24.5-25.5"/>
			</g>
		</g>
	</g>
</g>
<g id="Hair_Background">
	<g id="Base_1_">
	</g>
</g>
<g id="Head">
	<path id="Base" fill="#FBE8C9" stroke="#000000" stroke-width="4" stroke-miterlimit="10" d="M294.333,35.667c0,0-130-6-130,162
		c0,74,42,106,49.333,114S247.667,345,289,345s74.666-43.334,85.333-68c10.667-24.667,42.666-118.667,12-190
		C368.333,50.333,326.334,37,294.333,35.667z"/>
	<g id="Details">
		<path fill="none" stroke="#000000" stroke-width="4" stroke-miterlimit="10" d="M177,217c0,0,90.667-56,204-3.333"/>
		<path fill="none" stroke="#000000" stroke-width="4" stroke-miterlimit="10" d="M181.422,214.536c0,0,16.911,67.13,26.244,70.464
			s38.667-0.667,45.333-4s11.054-35.717,10.527-89.192"/>
		<path fill="none" stroke="#000000" stroke-width="4" stroke-miterlimit="10" d="M374.127,210.593c0,0-16.91,71.074-26.244,74.407
			c-9.333,3.333-38.666-0.667-45.333-4s-11.054-35.717-10.527-89.192"/>
		<path fill="none" stroke="#000000" stroke-width="4" stroke-miterlimit="10" d="M275.5,309.5c0,0,21,6,42-12"/>
		<path fill="none" stroke="#000000" stroke-width="4" stroke-miterlimit="10" d="M317.5,155.5c0,0,13,13.5,24.5,12"/>
		<ellipse fill="#106F9E" cx="230" cy="222.75" rx="7.583" ry="18.959"/>
		<ellipse cx="230" cy="222.75" rx="3.355" ry="8.388"/>
		<ellipse fill="#FFFFFF" cx="230" cy="214.822" rx="3.792" ry="4.194"/>
		<g>
			<ellipse fill="#106F9E" cx="230" cy="222.75" rx="7.583" ry="18.959"/>
			<ellipse cx="230" cy="222.75" rx="3.355" ry="8.388"/>
			<ellipse fill="#FFFFFF" cx="230" cy="214.822" rx="3.792" ry="4.194"/>
		</g>
		<g>
			<ellipse fill="#106F9E" cx="329.75" cy="222.75" rx="7.583" ry="18.959"/>
			<ellipse cx="329.751" cy="222.75" rx="3.354" ry="8.388"/>
			<ellipse fill="#FFFFFF" cx="329.75" cy="214.822" rx="3.792" ry="4.194"/>
		</g>
	</g>
</g>
<g id="Hair_Front">
	<path fill="none" stroke="#000000" stroke-width="4" stroke-miterlimit="10" d="M348,12.955c0,0,13.334,12.712,9.667,27.378
		C368,30,379,18.91,381,12.955"/>
	
		<linearGradient id="SVGID_1_" gradientUnits="userSpaceOnUse" x1="59.6665" y1="255.2036" x2="59.6665" y2="642.0454" gradientTransform="matrix(1 0 0 -1 244 655)">
		<stop  offset="0" style="stop-color:#7E401F"/>
		<stop  offset="1" style="stop-color:#B08258"/>
	</linearGradient>
	<path fill="url(#SVGID_1_)" stroke="#000000" stroke-width="4" stroke-miterlimit="10" d="M435,307c20.667,1.333,37.333-4,48-20
		c-21.333-2.667-54.667-18-52.667-65.333c0.143-3.376,0.312-6.954,0.497-10.687c0.023-0.506,0.05-1.012,0.075-1.523
		c0.01-0.211,0.021-0.425,0.03-0.637c0.187-3.725,0.383-7.595,0.577-11.579c0.021-0.388,0.038-0.78,0.058-1.171
		c0.023-0.487,0.048-0.972,0.07-1.462c0.021-0.417,0.04-0.838,0.062-1.257c0.021-0.431,0.041-0.861,0.062-1.295
		c0.021-0.464,0.043-0.932,0.064-1.399c0.021-0.43,0.04-0.86,0.061-1.292c0.02-0.417,0.038-0.837,0.058-1.256
		c0.021-0.487,0.044-0.975,0.064-1.464c0.02-0.422,0.037-0.845,0.057-1.269c0.02-0.454,0.039-0.908,0.059-1.364
		c0.021-0.465,0.039-0.93,0.06-1.397c0.02-0.449,0.036-0.898,0.056-1.348c0.019-0.445,0.036-0.89,0.054-1.336
		c0.021-0.477,0.037-0.956,0.057-1.434c0.018-0.439,0.033-0.878,0.051-1.319c0.018-0.479,0.035-0.961,0.053-1.442
		c0.016-0.443,0.032-0.886,0.047-1.331c0.018-0.482,0.033-0.965,0.05-1.448c0.016-0.442,0.029-0.884,0.044-1.327
		c0.017-0.498,0.031-0.998,0.046-1.497c0.015-0.43,0.027-0.859,0.04-1.289c0.016-0.519,0.029-1.038,0.043-1.557
		c0.013-0.416,0.023-0.832,0.034-1.248c0.018-0.604,0.03-1.21,0.045-1.816c0.009-0.327,0.018-0.653,0.024-0.98
		c0.021-0.919,0.04-1.839,0.058-2.759c0.007-0.365,0.014-0.731,0.021-1.096c0.01-0.573,0.021-1.146,0.029-1.72
		c0.006-0.395,0.011-0.789,0.016-1.184c0.008-0.546,0.016-1.091,0.021-1.637c0.005-0.401,0.009-0.802,0.013-1.203
		c0.005-0.537,0.01-1.075,0.014-1.612c0.003-0.421,0.005-0.841,0.007-1.261c0.002-0.508,0.005-1.017,0.006-1.524
		c0.001-0.438,0.001-0.875,0.001-1.313c0-0.503,0-1.005-0.002-1.507c-0.001-0.426-0.003-0.852-0.005-1.277
		c-0.003-0.508-0.006-1.017-0.01-1.524c-0.003-0.428-0.007-0.856-0.012-1.285c-0.005-0.501-0.012-1.002-0.019-1.503
		c-0.006-0.425-0.012-0.85-0.019-1.273c-0.009-0.507-0.019-1.013-0.027-1.519c-0.008-0.419-0.017-0.837-0.025-1.255
		c-0.012-0.504-0.023-1.007-0.036-1.51c-0.012-0.416-0.021-0.831-0.032-1.246c-0.016-0.51-0.031-1.018-0.048-1.526
		c-0.014-0.403-0.025-0.807-0.039-1.208c-0.02-0.528-0.04-1.054-0.062-1.579c-0.015-0.378-0.028-0.757-0.045-1.134
		c-0.022-0.571-0.051-1.139-0.077-1.708c-0.016-0.329-0.029-0.658-0.046-0.986c-0.038-0.756-0.079-1.507-0.122-2.257
		c-0.007-0.136-0.014-0.274-0.021-0.41c-0.052-0.884-0.106-1.764-0.165-2.639c-0.019-0.277-0.039-0.552-0.059-0.828
		c-0.042-0.595-0.083-1.19-0.127-1.781c-0.025-0.345-0.055-0.686-0.082-1.029c-0.041-0.521-0.083-1.043-0.127-1.562
		c-0.029-0.358-0.062-0.714-0.095-1.071c-0.044-0.496-0.089-0.991-0.136-1.482c-0.035-0.367-0.072-0.732-0.108-1.097
		c-0.048-0.478-0.096-0.954-0.146-1.428c-0.038-0.366-0.079-0.73-0.119-1.094c-0.052-0.465-0.104-0.929-0.158-1.39
		c-0.044-0.368-0.089-0.734-0.134-1.1c-0.056-0.452-0.112-0.902-0.171-1.35c-0.047-0.363-0.096-0.725-0.146-1.085
		c-0.061-0.444-0.122-0.886-0.186-1.326c-0.051-0.358-0.104-0.714-0.155-1.069c-0.066-0.438-0.134-0.873-0.202-1.306
		c-0.055-0.347-0.108-0.693-0.166-1.037c-0.071-0.435-0.146-0.865-0.22-1.295c-0.058-0.336-0.115-0.673-0.176-1.006
		c-0.078-0.436-0.16-0.867-0.241-1.297c-0.062-0.317-0.119-0.636-0.182-0.95c-0.089-0.447-0.181-0.888-0.271-1.329
		c-0.061-0.291-0.119-0.584-0.182-0.873c-0.104-0.478-0.21-0.947-0.316-1.417c-0.056-0.243-0.108-0.49-0.165-0.73
		c-0.156-0.662-0.315-1.316-0.479-1.962c-0.012-0.042-0.021-0.087-0.032-0.129c-0.176-0.688-0.357-1.367-0.544-2.036
		c-0.06-0.21-0.121-0.414-0.182-0.622c-0.131-0.454-0.261-0.908-0.396-1.354c-0.078-0.255-0.159-0.502-0.238-0.754
		c-0.122-0.389-0.244-0.779-0.371-1.16c-0.088-0.265-0.179-0.524-0.27-0.786c-0.123-0.359-0.246-0.717-0.373-1.068
		c-0.097-0.265-0.195-0.525-0.293-0.786c-0.127-0.337-0.254-0.672-0.385-1.002c-0.104-0.261-0.208-0.517-0.313-0.773
		c-0.132-0.32-0.265-0.639-0.399-0.953c-0.108-0.251-0.22-0.499-0.33-0.746c-0.139-0.307-0.277-0.611-0.42-0.911
		c-0.114-0.241-0.229-0.48-0.347-0.717c-0.146-0.293-0.292-0.583-0.44-0.869c-0.119-0.23-0.24-0.46-0.362-0.686
		c-0.152-0.281-0.308-0.557-0.464-0.83c-0.124-0.217-0.249-0.435-0.376-0.648c-0.161-0.271-0.326-0.534-0.491-0.796
		c-0.128-0.203-0.255-0.407-0.386-0.604c-0.173-0.262-0.351-0.515-0.526-0.768c-0.13-0.186-0.258-0.374-0.39-0.554
		c-0.188-0.257-0.381-0.503-0.574-0.75c-0.127-0.164-0.252-0.332-0.382-0.491c-0.218-0.267-0.441-0.521-0.665-0.776
		c-0.111-0.126-0.219-0.258-0.331-0.381c-0.339-0.372-0.686-0.73-1.037-1.073C393,43,385.001,40.333,357.667,40.333
		c0,0-10.667-28.667-74.667-27.333S183,36.333,155,72.333S129.667,173.667,130.333,187S123,223.667,105,221
		c0,0,15.333,11.754,34,0.21c0,0-24.667,31.123-19.333,64.456s34,52,29.333,80s-33.333,34-44,33.333c0,0,46,7.999,71.333-26.667
		c0,0,5.333,15.596-8.667,27.465c22.532-8.745,64.159-27.249,58.761-76.579c-6.114-4.688-10.424-9.002-12.761-11.552
		c-7.285-7.945-45.78-40.043-46.333-112.994C197.734,194.19,287.329,174.693,343,93.667c2.078,22.854,6.196,84.945,52.367,108.741
		c-5.617,34.206-15.848,62.598-21.034,74.593c-6.093,14.088-19.581,34.262-37.729,48.978
		c27.174,37.447,110.853,63.447,165.729,19.022C502.333,345,441.667,348.334,435,307z"/>
	<path fill="none" stroke="#000000" stroke-width="4" stroke-miterlimit="10" d="M246,351"/>
	<path fill="none" stroke="#000000" stroke-width="4" stroke-miterlimit="10" d="M234.746,161.558c0,0-13,13.5-24.5,12"/>
</g>
<g id="brad_slide_1_copy">
	<g id="Body_copy">
		<g id="Lets_copy">
			<g id="Pants_copy">
				<polygon fill="#324956" stroke="#000000" stroke-width="5" stroke-miterlimit="10" points="167.333,1051.5 147.333,1173.5 
					248.667,1092.167 347,1092.167 449.389,1174.555 429.389,1051.5 				"/>
			</g>
			<g id="Belt_copy">
				<polyline fill="#A1B3B4" stroke="#000000" stroke-width="4" stroke-miterlimit="10" points="167.333,1036.5 431.332,1036.5 
					431.332,1057 167.333,1057 167.333,1036.5 				"/>
			</g>
		</g>
		<g id="Torso_copy">
			<g id="Base_copy_1_">
				<path fill="#FBE8C9" stroke="#000000" stroke-width="4" stroke-miterlimit="10" d="M284.554,859.5c0,0-117.5,58-107,171.5
					c70,0.5,245.999-2.602,245.999-2.602s-8.766-90.883-24.266-123.383S371.055,822,284.554,859.5z"/>
			</g>
			<g id="Shirt_copy">
				<g id="Shirt_copy_1_">
					<path fill="#A9E2E2" stroke="#000000" stroke-width="4" stroke-miterlimit="10" d="M215.333,905.667
						c0,0,61.666,64.001,72.333,75.667C301,968,344.332,925,355.332,894c38,6.333,55.334,11,61.668,25
						c6.332,14,13.998,94.335,14.332,122.001c-28.729,0-263.999,0-263.999,0S169,932.667,174,918.667S203,907.334,215.333,905.667z"
						/>
				</g>
				<g id="Sleeves_copy">
					
						<polyline opacity="0.2" fill="none" stroke="#000000" stroke-width="4" stroke-miterlimit="10" enable-background="new    " points="
						275.5,982.5 286.5,993.5 298.361,982.5 					"/>
					
						<line opacity="0.2" fill="none" stroke="#000000" stroke-width="4" stroke-miterlimit="10" enable-background="new    " x1="320.5" y1="959" x2="338.5" y2="938.517"/>
					<path opacity="0.2" fill="none" stroke="#000000" stroke-width="4" stroke-miterlimit="10" enable-background="new    " d="
						M249,951c0,0-17.5-19.5-24.5-25.5"/>
				</g>
				<g>
					<path fill="#FBE8C9" stroke="#000000" stroke-width="4" stroke-miterlimit="10" d="M559.975,821.551l-23.736,20.646
						l-4.531-5.407c0,0,19.463-21.918,25.076-29.286c-1.453-2.977-0.396-3.965-8.855-6.596
						c-3.586,5.445-23.832,29.912-23.834,29.915c-1.256-0.993-4.672-3.769-4.672-3.769s11.775-18.99,19.305-31.541
						c-4.604-4.072-9.949-3.347-9.949-3.347l-20.607,30.862c-14.836,10.855-20.416,39.281-20.416,39.281
						s-41.877,21.717-73.07,31.817c8.496,8.578,23.084,14.326,34.199,23.435c23.283-16.088,47.316-33.963,59.621-45.235
						c14.025-0.979,24.631-11.577,29.289-17.154c0.002-0.003,0.008-0.007,0.012-0.01c5.584-5.843,18.039-17.351,26.686-26.702
						C565.555,823.992,559.975,821.551,559.975,821.551z"/>
					<path fill="#FBE8C9" stroke="#000000" stroke-width="4" stroke-miterlimit="10" d="M489.178,854.154
						c0.998-1.557-3.053-7.769-2.389-19.598c0.664-11.828,0.639-18.42-3.465-27.355c8.309-0.443,11.289,6.146,12.055,9.781
						c0.768,3.637,2.434,9.625,6.605,13.955c4.174,4.33,13.426,13.026,7.904,25.896"/>
				</g>
				<path fill="#A9E2E2" stroke="#000000" stroke-width="4" stroke-miterlimit="10" d="M418,876c0,0,35,45,40,49.5
					c-23,13.5-34.445,25.916-34.445,25.916L418,959"/>
				<g>
					<path fill="#FBE8C9" stroke="#000000" stroke-width="4" stroke-miterlimit="10" d="M32.682,809.493l20.859,23.551l5.194-4.772
						c0,0-16.455-24.258-21.066-32.293c1.829-2.763,0.907-3.879,9.638-5.391c2.848,5.864,19.749,32.751,19.751,32.754
						c1.374-0.822,5.12-3.13,5.12-3.13s-9.211-20.356-15.048-33.78c5.093-3.439,10.299-2.025,10.299-2.025l16.431,33.275
						c13.302,12.688,15.147,41.598,15.147,41.598s38.706,26.965,68.326,41.027c-9.537,7.402-24.748,11.21-36.951,18.801
						c-21-18.975-42.51-39.815-53.249-52.588c-13.781-2.791-22.922-14.675-26.816-20.81c-0.002-0.003-0.008-0.008-0.01-0.012
						c-4.779-6.517-15.636-19.544-22.996-29.938C26.833,811.189,32.682,809.493,32.682,809.493z"/>
					<path fill="#FBE8C9" stroke="#000000" stroke-width="4" stroke-miterlimit="10" d="M98.652,851.004
						c-0.788-1.673,4.034-7.307,4.91-19.123c0.876-11.814,1.757-18.347,6.985-26.676c-8.181-1.518-11.991,4.63-13.222,8.136
						c-1.232,3.507-3.661,9.229-8.36,12.979c-4.7,3.752-15.002,11.175-11.198,24.652"/>
				</g>
				<path fill="#A9E2E2" stroke="#000000" stroke-width="4" stroke-miterlimit="10" d="M165.365,876.586
					c0,0-40.09,40.531-45.588,44.406c21.236,16.133,31.128,29.817,31.128,29.817l4.616,8.189"/>
			</g>
		</g>
	</g>
	<g id="Hair_Background_copy">
		<g id="Base_copy">
		</g>
	</g>
	<g id="Head_copy">
		<path id="Base_4_" fill="#FBE8C9" stroke="#000000" stroke-width="4" stroke-miterlimit="10" d="M294.333,635.667
			c0,0-130-6-130,162c0,74,42,106,49.333,114S247.667,945,289,945c41.332,0,74.666-43.334,85.332-68
			c10.668-24.667,42.666-118.667,12-190C368.332,650.333,326.334,637,294.333,635.667z"/>
		<g id="Details_copy">
			<path fill="none" stroke="#000000" stroke-width="4" stroke-miterlimit="10" d="M177,817c0,0,90.667-56,204-3.333"/>
			<path fill="none" stroke="#000000" stroke-width="4" stroke-miterlimit="10" d="M181.422,814.536c0,0,16.911,67.13,26.244,70.464
				s38.667-0.667,45.333-4s11.054-35.717,10.527-89.191"/>
			<path fill="none" stroke="#000000" stroke-width="4" stroke-miterlimit="10" d="M374.127,810.593c0,0-16.91,71.074-26.244,74.407
				s-38.666-0.667-45.334-4c-6.666-3.333-11.053-35.717-10.526-89.191"/>
			<ellipse fill="#106F9E" cx="230" cy="822.75" rx="7.583" ry="18.959"/>
			<ellipse cx="230" cy="822.75" rx="3.355" ry="8.389"/>
			<ellipse fill="#FFFFFF" cx="230" cy="814.822" rx="3.792" ry="4.194"/>
			<g>
				<ellipse fill="#106F9E" cx="230" cy="822.75" rx="7.583" ry="18.959"/>
				<ellipse cx="230" cy="822.75" rx="3.355" ry="8.389"/>
				<ellipse fill="#FFFFFF" cx="230" cy="814.822" rx="3.792" ry="4.194"/>
			</g>
			<g>
				<ellipse fill="#106F9E" cx="329.75" cy="822.75" rx="7.582" ry="18.959"/>
				<ellipse cx="329.75" cy="822.75" rx="3.355" ry="8.389"/>
				<ellipse fill="#FFFFFF" cx="329.75" cy="814.822" rx="3.791" ry="4.194"/>
			</g>
			<path stroke="#000000" stroke-width="4" stroke-miterlimit="10" d="M268.333,913c0,0,25.695-41.609,35.333,0
				C293,917,281,922.333,268.333,913z"/>
		</g>
	</g>
	<g id="Hair_Front_copy">
		<path fill="none" stroke="#000000" stroke-width="4" stroke-miterlimit="10" d="M348,612.955c0,0,13.334,12.712,9.666,27.378
			C368,630,379,618.91,381,612.955"/>
		
			<linearGradient id="SVGID_2_" gradientUnits="userSpaceOnUse" x1="59.6655" y1="-344.7964" x2="59.6655" y2="42.0454" gradientTransform="matrix(1 0 0 -1 244 655)">
			<stop  offset="0" style="stop-color:#7E401F"/>
			<stop  offset="1" style="stop-color:#B08258"/>
		</linearGradient>
		<path fill="url(#SVGID_2_)" stroke="#000000" stroke-width="4" stroke-miterlimit="10" d="M435,907c20.666,1.333,37.332-4,48-20
			c-21.334-2.667-54.668-18-52.668-65.333c0.143-3.376,0.312-6.954,0.498-10.687c0.023-0.506,0.049-1.013,0.074-1.523
			c0.01-0.211,0.021-0.425,0.031-0.637c0.186-3.725,0.383-7.596,0.576-11.579c0.021-0.388,0.039-0.78,0.059-1.171
			c0.023-0.487,0.047-0.973,0.07-1.463c0.021-0.416,0.039-0.838,0.061-1.256c0.021-0.432,0.041-0.861,0.062-1.295
			c0.021-0.465,0.043-0.933,0.064-1.399c0.02-0.431,0.039-0.86,0.061-1.292c0.02-0.417,0.037-0.838,0.057-1.256
			c0.021-0.487,0.045-0.976,0.064-1.465c0.02-0.422,0.037-0.845,0.057-1.269c0.02-0.454,0.039-0.908,0.059-1.364
			c0.021-0.465,0.039-0.93,0.061-1.396c0.02-0.449,0.035-0.898,0.055-1.348c0.02-0.445,0.037-0.891,0.055-1.336
			c0.02-0.478,0.037-0.957,0.057-1.435c0.018-0.438,0.033-0.878,0.051-1.319c0.018-0.479,0.035-0.961,0.053-1.441
			c0.016-0.443,0.031-0.887,0.047-1.332c0.018-0.481,0.033-0.965,0.049-1.447c0.016-0.441,0.029-0.884,0.045-1.327
			c0.016-0.498,0.031-0.998,0.045-1.497c0.016-0.43,0.027-0.859,0.041-1.289c0.016-0.519,0.029-1.037,0.043-1.557
			c0.012-0.416,0.023-0.832,0.033-1.248c0.018-0.604,0.031-1.21,0.045-1.816c0.01-0.326,0.018-0.652,0.025-0.979
			c0.02-0.919,0.039-1.839,0.057-2.759c0.008-0.365,0.014-0.731,0.021-1.096c0.01-0.574,0.02-1.146,0.029-1.721
			c0.006-0.395,0.01-0.789,0.016-1.184c0.008-0.547,0.016-1.092,0.02-1.637c0.006-0.402,0.01-0.803,0.014-1.203
			c0.004-0.537,0.01-1.076,0.014-1.612c0.002-0.421,0.004-0.841,0.006-1.261c0.002-0.508,0.006-1.018,0.006-1.524
			c0.002-0.438,0.002-0.875,0.002-1.313c0-0.502,0-1.005-0.002-1.507c-0.002-0.426-0.004-0.852-0.006-1.276
			c-0.002-0.508-0.006-1.018-0.01-1.524c-0.002-0.428-0.006-0.856-0.012-1.285c-0.004-0.501-0.012-1.002-0.018-1.503
			c-0.006-0.425-0.012-0.85-0.02-1.273c-0.008-0.506-0.018-1.013-0.027-1.519c-0.008-0.419-0.016-0.837-0.025-1.255
			c-0.012-0.504-0.023-1.007-0.035-1.51c-0.012-0.416-0.021-0.831-0.033-1.246c-0.016-0.51-0.031-1.018-0.047-1.526
			c-0.014-0.403-0.025-0.807-0.039-1.208c-0.02-0.527-0.041-1.054-0.062-1.578c-0.014-0.379-0.027-0.758-0.045-1.135
			c-0.021-0.57-0.051-1.139-0.076-1.708c-0.016-0.329-0.029-0.657-0.047-0.985c-0.037-0.756-0.078-1.508-0.121-2.258
			c-0.008-0.136-0.014-0.273-0.021-0.41c-0.051-0.884-0.105-1.764-0.164-2.639c-0.02-0.277-0.039-0.552-0.059-0.828
			c-0.043-0.595-0.084-1.189-0.127-1.781c-0.025-0.345-0.055-0.686-0.082-1.028c-0.041-0.521-0.084-1.043-0.127-1.562
			c-0.029-0.359-0.062-0.715-0.096-1.072c-0.043-0.496-0.088-0.99-0.135-1.481c-0.035-0.367-0.072-0.731-0.109-1.097
			c-0.047-0.479-0.096-0.954-0.145-1.428c-0.039-0.367-0.08-0.73-0.119-1.095c-0.053-0.465-0.105-0.929-0.158-1.39
			c-0.045-0.368-0.09-0.734-0.135-1.1c-0.055-0.453-0.111-0.902-0.17-1.351c-0.047-0.362-0.096-0.726-0.146-1.085
			c-0.061-0.443-0.121-0.887-0.186-1.326c-0.051-0.357-0.104-0.714-0.154-1.068c-0.066-0.438-0.135-0.873-0.203-1.307
			c-0.055-0.347-0.107-0.693-0.166-1.037c-0.07-0.435-0.145-0.865-0.219-1.295c-0.059-0.336-0.115-0.673-0.176-1.006
			c-0.078-0.436-0.16-0.867-0.242-1.297c-0.061-0.316-0.119-0.637-0.182-0.95c-0.088-0.446-0.18-0.888-0.271-1.329
			c-0.061-0.291-0.119-0.584-0.182-0.873c-0.104-0.478-0.209-0.947-0.316-1.417c-0.055-0.243-0.107-0.489-0.164-0.73
			c-0.156-0.662-0.316-1.316-0.48-1.962c-0.012-0.043-0.021-0.088-0.031-0.129c-0.176-0.688-0.357-1.367-0.545-2.037
			c-0.059-0.209-0.121-0.413-0.182-0.621c-0.131-0.454-0.26-0.908-0.395-1.354c-0.078-0.255-0.16-0.502-0.238-0.754
			c-0.123-0.389-0.244-0.779-0.371-1.16c-0.088-0.265-0.18-0.523-0.27-0.785c-0.123-0.359-0.246-0.718-0.373-1.068
			c-0.098-0.266-0.195-0.525-0.293-0.786c-0.127-0.337-0.254-0.672-0.385-1.002c-0.104-0.261-0.209-0.517-0.314-0.772
			c-0.131-0.32-0.264-0.64-0.398-0.953c-0.109-0.252-0.221-0.5-0.33-0.746c-0.139-0.308-0.277-0.611-0.42-0.911
			c-0.115-0.241-0.23-0.48-0.348-0.718c-0.145-0.293-0.291-0.582-0.439-0.869c-0.119-0.229-0.24-0.459-0.363-0.686
			c-0.152-0.281-0.307-0.557-0.463-0.83c-0.125-0.217-0.25-0.435-0.377-0.648c-0.16-0.271-0.326-0.533-0.49-0.795
			c-0.129-0.203-0.256-0.407-0.387-0.604c-0.172-0.262-0.35-0.515-0.525-0.769c-0.131-0.186-0.258-0.373-0.391-0.553
			c-0.188-0.258-0.381-0.504-0.574-0.75c-0.127-0.164-0.252-0.332-0.381-0.492c-0.219-0.267-0.441-0.521-0.666-0.775
			c-0.111-0.126-0.219-0.258-0.33-0.381c-0.34-0.372-0.686-0.73-1.037-1.073C393,643,385,640.333,357.666,640.333
			c0,0-10.666-28.667-74.666-27.333s-100,23.333-128,59.333S129.667,773.667,130.333,787S123,823.667,105,821
			c0,0,15.333,11.754,34,0.21c0,0-24.667,31.123-19.333,64.456s34,52,29.333,80s-33.333,34-44,33.333c0,0,46,7.999,71.333-26.667
			c0,0,5.333,15.596-8.667,27.465c22.532-8.745,64.159-27.249,58.761-76.579c-6.114-4.688-10.424-9.002-12.761-11.552
			c-7.285-7.945-45.78-40.043-46.333-112.994c30.401-4.482,119.996-23.979,175.667-105.005
			c2.078,22.854,6.195,84.944,52.367,108.741c-5.617,34.205-15.848,62.598-21.035,74.593c-6.092,14.088-19.58,34.262-37.729,48.978
			c27.174,37.447,110.852,63.447,165.729,19.022C502.332,945,441.666,948.334,435,907z"/>
		<path fill="none" stroke="#000000" stroke-width="4" stroke-miterlimit="10" d="M246,951"/>
		
			<line fill="none" stroke="#000000" stroke-width="4" stroke-miterlimit="10" x1="209.264" y1="775.667" x2="226.645" y2="751.667"/>
		
			<line fill="none" stroke="#000000" stroke-width="4" stroke-miterlimit="10" x1="346.023" y1="775.667" x2="328.645" y2="751.667"/>
	</g>
</g>
</svg>
