<?xml version="1.0" encoding="utf-8"?>
<!-- Generator: Adobe Illustrator 16.0.0, SVG Export Plug-In . SVG Version: 6.00 Build 0)  -->
<!DOCTYPE svg PUBLIC "-//W3C//DTD SVG 1.1//EN" "http://www.w3.org/Graphics/SVG/1.1/DTD/svg11.dtd">
<svg version="1.1" xmlns="http://www.w3.org/2000/svg" xmlns:xlink="http://www.w3.org/1999/xlink" x="0px" y="0px" width="1000px"
	 height="1409.091px" viewBox="0 0 1000 1409.091" enable-background="new 0 0 1000 1409.091" xml:space="preserve">
<g id="Ref" display="none">
	
		<image display="inline" overflow="visible" width="160" height="160" xlink:href="../../../../../Dropbox/apps/sprite something/bassel-pixel.png"  transform="matrix(1 0 0 1 484 0)">
	</image>
</g>
<g id="Art">
</g>
<g id="Art_copy">
	<g>
		<polygon fill="#FFE4B7" points="954.545,272.728 954.545,227.272 954.545,181.818 909.092,181.818 909.092,136.364 
			863.638,136.364 863.638,90.909 818.183,90.909 818.183,45.455 772.728,45.455 727.272,45.455 727.272,0 681.817,0 636.365,0 
			590.91,0 545.455,0 500,0 454.545,0 409.092,0 363.637,0 318.183,0 272.728,0 272.728,45.455 227.272,45.455 181.818,45.455 
			181.818,90.909 136.365,90.909 136.365,136.364 90.91,136.364 90.91,181.818 90.91,227.272 45.455,227.272 45.455,272.728 
			45.455,318.182 0,318.182 0,363.637 0,409.091 0,454.545 0,500 0,545.455 0,590.909 0,636.363 0,681.818 0,727.272 0,772.728 
			0,818.182 0,863.637 45.455,863.637 45.455,909.091 90.91,909.091 90.91,954.545 90.91,1000 90.91,1045.455 136.365,1045.455 
			136.365,1090.909 136.365,1136.363 181.818,1136.363 181.818,1181.817 181.818,1227.272 227.272,1227.272 227.272,1272.728 
			272.728,1272.728 272.728,1318.183 318.183,1318.183 318.183,1363.637 363.637,1363.637 363.637,1409.091 409.092,1409.091 
			454.545,1409.091 500,1409.091 545.455,1409.091 590.91,1409.091 636.365,1409.091 636.365,1363.637 681.817,1363.637 
			681.817,1318.183 727.272,1318.183 727.272,1272.728 772.728,1272.728 772.728,1227.272 818.183,1227.272 818.183,1181.817 
			818.183,1136.363 863.638,1136.363 863.638,1090.909 863.638,1045.455 863.638,1000 909.092,1000 909.092,954.545 
			909.092,909.091 954.545,909.091 954.545,863.637 954.545,818.182 1000,818.182 1000,772.728 1000,727.272 1000,681.818 
			1000,636.363 1000,590.909 1000,545.455 1000,500 1000,454.545 1000,409.091 1000,363.637 1000,318.182 1000,272.728 		"/>
		<g>
			<polygon fill="#110600" points="954.545,272.728 954.545,227.272 954.545,181.818 909.092,181.818 909.092,136.364 
				863.638,136.364 863.638,90.909 818.183,90.909 818.183,45.455 772.728,45.455 727.272,45.455 727.272,0 681.817,0 636.365,0 
				590.91,0 545.455,0 500,0 454.545,0 409.092,0 363.637,0 318.183,0 272.728,0 272.728,45.455 227.272,45.455 181.818,45.455 
				181.818,90.909 136.365,90.909 136.365,136.364 90.91,136.364 90.91,181.818 90.91,227.272 45.455,227.272 45.455,272.728 
				45.455,318.182 0,318.182 0,363.637 0,409.091 0,454.545 0,500 0,545.455 0,590.909 0,636.363 45.455,636.363 45.455,681.818 
				45.455,727.272 45.455,772.728 45.455,818.182 90.91,818.182 90.91,772.728 90.91,727.272 90.91,681.818 90.91,636.363 
				90.91,590.909 136.365,590.909 136.365,545.455 136.365,500 181.818,500 181.818,454.545 181.818,409.091 136.365,409.091 
				136.365,363.637 136.365,318.182 136.365,272.728 181.818,272.728 181.818,227.272 181.818,181.818 227.272,181.818 
				227.272,136.364 272.728,136.364 272.728,181.818 318.183,181.818 363.637,181.818 409.092,181.818 409.092,227.272 
				454.545,227.272 500,227.272 545.455,227.272 590.91,227.272 590.91,181.818 636.365,181.818 681.817,181.818 727.272,181.818 
				727.272,136.364 772.728,136.364 772.728,181.818 818.183,181.818 818.183,227.272 818.183,272.728 863.638,272.728 
				863.638,318.182 909.092,318.182 909.092,363.637 909.092,409.091 863.638,409.091 863.638,454.545 863.638,500 863.638,545.455 
				909.092,545.455 909.092,590.909 909.092,636.363 909.092,681.818 909.092,727.272 909.092,772.728 909.092,818.182 
				954.545,818.182 954.545,772.728 954.545,727.272 954.545,681.818 954.545,636.363 1000,636.363 1000,590.909 1000,545.455 
				1000,500 1000,454.545 1000,409.091 1000,363.637 1000,318.182 1000,272.728 			"/>
			<g>
				<polygon fill="#110600" points="363.637,545.455 318.183,545.455 272.728,545.455 227.272,545.455 227.272,590.909 
					272.728,590.909 318.183,590.909 363.637,590.909 409.092,590.909 409.092,545.455 				"/>
				<polygon fill="#110600" points="727.272,545.455 681.817,545.455 636.365,545.455 590.91,545.455 590.91,590.909 
					636.365,590.909 681.817,590.909 727.272,590.909 772.728,590.909 772.728,545.455 				"/>
				<rect x="772.728" y="590.909" fill="#110600" width="45.455" height="45.454"/>
				<rect x="181.818" y="590.909" fill="#110600" width="45.455" height="45.454"/>
			</g>
			<g>
				<path fill="#110600" d="M681.817,1045.455V1000h-45.452v-45.455H590.91h-45.455V1000H500h-45.455v-45.455h-45.453h-45.455V1000
					h-45.455v45.455h-45.455v45.454v45.454v45.454v45.455v45.455v45.455h45.455v45.454h45.455v45.454h45.455h45.453H500h45.455
					h45.455h45.456v-45.454h45.452v-45.454h45.455v-45.455v-45.455v-45.455v-45.454v-45.454v-45.454H681.817z M681.817,1136.363
					v45.454v45.455h-45.452v45.455H590.91v45.455h-45.455H500h-45.455h-45.453v-45.455h-45.455v-45.455h-45.455v-45.455v-45.454
					v-45.454h45.455h45.455h45.453H500h45.455h45.455h45.456h45.452V1136.363z"/>
				<polygon fill="#110600" points="500,1136.363 454.545,1136.363 409.092,1136.363 409.092,1181.817 409.092,1227.272 
					454.545,1227.272 454.545,1272.728 500,1272.728 545.455,1272.728 545.455,1227.272 590.91,1227.272 590.91,1181.817 
					590.91,1136.363 545.455,1136.363 				"/>
			</g>
		</g>
		<g>
			<polygon fill="#FFC86A" points="90.91,909.091 90.91,863.637 90.91,818.182 45.455,818.182 45.455,772.728 45.455,727.272 
				45.455,681.818 45.455,636.363 0,636.363 0,681.818 0,727.272 0,772.728 0,818.182 0,863.637 45.455,863.637 45.455,909.091 			
				"/>
			<polygon fill="#FFC86A" points="227.272,1136.363 227.272,1090.909 227.272,1045.455 181.818,1045.455 181.818,1000 
				136.365,1000 136.365,954.545 90.91,954.545 90.91,1000 90.91,1045.455 136.365,1045.455 136.365,1090.909 136.365,1136.363 
				181.818,1136.363 181.818,1181.817 181.818,1227.272 227.272,1227.272 227.272,1272.728 272.728,1272.728 272.728,1227.272 
				272.728,1181.817 272.728,1136.363 			"/>
		</g>
		<g>
			<polygon fill="#FFC86A" points="318.183,909.091 272.728,909.091 272.728,954.545 227.272,954.545 227.272,1000 
				227.272,1045.455 272.728,1045.455 272.728,1000 318.183,1000 318.183,954.545 363.637,954.545 363.637,909.091 363.637,863.637 
				318.183,863.637 			"/>
			<rect x="363.637" y="818.182" fill="#FFC86A" width="45.455" height="45.455"/>
		</g>
		<rect x="590.91" y="863.637" fill="#FFC86A" width="45.456" height="45.454"/>
		<rect x="636.365" y="909.091" fill="#FFC86A" width="45.452" height="45.454"/>
		<rect x="681.817" y="954.545" fill="#FFC86A" width="45.455" height="45.455"/>
		<g>
			<polygon fill="#FFC86A" points="818.183,1045.455 772.728,1045.455 772.728,1090.909 727.272,1090.909 727.272,1136.363 
				727.272,1181.817 727.272,1227.272 727.272,1272.728 772.728,1272.728 772.728,1227.272 818.183,1227.272 818.183,1181.817 
				818.183,1136.363 863.638,1136.363 863.638,1090.909 863.638,1045.455 863.638,1000 818.183,1000 			"/>
			<rect x="863.638" y="954.545" fill="#FFC86A" width="45.454" height="45.455"/>
		</g>
		<g>
			<polygon fill="#FFC86A" points="909.092,863.637 909.092,909.091 954.545,909.091 954.545,863.637 954.545,818.182 
				909.092,818.182 			"/>
			<polygon fill="#FFC86A" points="954.545,636.363 954.545,681.818 954.545,727.272 954.545,772.728 954.545,818.182 1000,818.182 
				1000,772.728 1000,727.272 1000,681.818 1000,636.363 			"/>
		</g>
		<rect x="818.183" y="636.363" fill="#FFC86A" width="45.455" height="45.455"/>
		<polygon fill="#FFC86A" points="727.272,590.909 681.817,590.909 636.365,590.909 590.91,590.909 590.91,636.363 636.365,636.363 
			681.817,636.363 727.272,636.363 772.728,636.363 772.728,590.909 		"/>
		<polygon fill="#FFC86A" points="363.637,590.909 318.183,590.909 272.728,590.909 227.272,590.909 227.272,636.363 
			272.728,636.363 318.183,636.363 363.637,636.363 409.092,636.363 409.092,590.909 		"/>
		<polygon fill="#FFC86A" points="545.455,545.455 500,545.455 454.545,545.455 409.092,545.455 409.092,590.909 454.545,590.909 
			500,590.909 545.455,590.909 590.91,590.909 590.91,545.455 		"/>
		<polygon fill="#FFC86A" points="772.728,409.091 772.728,454.545 772.728,500 818.183,500 818.183,454.545 818.183,409.091 		"/>
		<polygon fill="#FFC86A" points="818.183,272.728 818.183,318.182 818.183,363.637 818.183,409.091 863.638,409.091 
			863.638,363.637 863.638,318.182 863.638,272.728 		"/>
		<rect x="409.092" y="590.909" fill="#D08300" width="45.453" height="45.454"/>
		<rect x="545.455" y="590.909" fill="#D08300" width="45.455" height="45.454"/>
		<polygon fill="#FF9D91" points="545.455,1090.909 500,1090.909 454.545,1090.909 409.092,1090.909 409.092,1136.363 
			454.545,1136.363 500,1136.363 545.455,1136.363 590.91,1136.363 590.91,1090.909 		"/>
		<rect x="590.91" y="1090.909" fill="#FFB991" width="45.456" height="45.454"/>
		<rect x="363.637" y="1090.909" fill="#FFB991" width="45.455" height="45.454"/>
		<polygon fill="#FFD690" points="636.365,1136.363 590.91,1136.363 590.91,1181.817 636.365,1181.817 636.365,1227.272 
			681.817,1227.272 681.817,1181.817 681.817,1136.363 		"/>
		<rect x="636.365" y="636.363" fill="#FFFFFF" width="45.452" height="45.455"/>
		<rect x="727.272" y="636.363" fill="#FFFFFF" width="45.455" height="45.455"/>
		<rect x="363.637" y="636.363" fill="#FFFFFF" width="45.455" height="45.455"/>
		<rect x="272.728" y="636.363" fill="#FFFFFF" width="45.455" height="45.455"/>
		<rect x="318.183" y="636.363" fill="#372200" width="45.455" height="45.455"/>
		<rect x="681.817" y="636.363" fill="#372200" width="45.455" height="45.455"/>
		<polygon fill="#FFD690" points="363.637,1136.363 363.637,1090.909 318.183,1090.909 318.183,1136.363 318.183,1181.817 
			318.183,1227.272 363.637,1227.272 363.637,1181.817 409.092,1181.817 409.092,1136.363 		"/>
		<polygon fill="#FFD690" points="590.91,1227.272 545.455,1227.272 545.455,1272.728 500,1272.728 454.545,1272.728 
			454.545,1227.272 409.092,1227.272 363.637,1227.272 363.637,1272.728 409.092,1272.728 409.092,1318.183 454.545,1318.183 
			500,1318.183 545.455,1318.183 590.91,1318.183 590.91,1272.728 636.365,1272.728 636.365,1227.272 		"/>
		<rect x="363.637" y="1181.817" fill="#FFE4B7" width="45.455" height="45.455"/>
		<rect x="590.91" y="1181.817" fill="#FFE4B7" width="45.456" height="45.455"/>
		<rect x="636.365" y="1090.909" fill="#FFE4B7" width="45.452" height="45.454"/>
		<polygon fill="#FFD690" points="863.638,545.455 863.638,500 863.638,454.545 863.638,409.091 818.183,409.091 818.183,454.545 
			818.183,500 818.183,545.455 818.183,590.909 818.183,636.363 863.638,636.363 863.638,681.818 863.638,727.272 818.183,727.272 
			818.183,772.728 818.183,818.182 818.183,863.637 772.728,863.637 772.728,909.091 772.728,954.545 772.728,1000 727.272,1000 
			727.272,1045.455 727.272,1090.909 772.728,1090.909 772.728,1045.455 818.183,1045.455 818.183,1000 863.638,1000 
			863.638,954.545 909.092,954.545 909.092,909.091 909.092,863.637 909.092,818.182 909.092,772.728 909.092,727.272 
			909.092,681.818 909.092,636.363 909.092,590.909 909.092,545.455 		"/>
		<polygon fill="#FFD690" points="863.638,318.182 863.638,363.637 863.638,409.091 909.092,409.091 909.092,363.637 
			909.092,318.182 		"/>
		<polygon fill="#FFE4B7" points="772.728,500 772.728,454.545 727.272,454.545 681.817,454.545 636.365,454.545 590.91,454.545 
			545.455,454.545 500,454.545 454.545,454.545 409.092,454.545 363.637,454.545 318.183,454.545 272.728,454.545 227.272,454.545 
			227.272,500 272.728,500 318.183,500 363.637,500 409.092,500 409.092,545.455 454.545,545.455 500,545.455 545.455,545.455 
			545.455,590.909 590.91,590.909 590.91,545.455 636.365,545.455 636.365,500 681.817,500 727.272,500 727.272,545.455 
			772.728,545.455 772.728,590.909 818.183,590.909 818.183,545.455 818.183,500 		"/>
		<rect x="545.455" y="545.455" fill="#FFD690" width="45.455" height="45.454"/>
		<rect x="636.365" y="500" fill="#FFD690" width="45.452" height="45.455"/>
		<rect x="681.817" y="500" fill="#FFD690" width="45.455" height="45.455"/>
		<polygon fill="#FFD690" points="727.272,681.818 681.817,681.818 636.365,681.818 590.91,681.818 590.91,636.363 545.455,636.363 
			545.455,681.818 545.455,727.272 545.455,772.728 545.455,818.182 545.455,863.637 590.91,863.637 636.365,863.637 
			636.365,818.182 636.365,772.728 681.817,772.728 681.817,727.272 727.272,727.272 772.728,727.272 772.728,681.818 		"/>
		<rect x="636.365" y="863.637" fill="#FFD690" width="45.452" height="45.454"/>
		<rect x="590.91" y="909.091" fill="#FFD690" width="45.456" height="45.454"/>
		<polygon fill="#FFD690" points="363.637,500 318.183,500 272.728,500 227.272,500 227.272,545.455 272.728,545.455 
			318.183,545.455 363.637,545.455 409.092,545.455 409.092,500 		"/>
		<polygon fill="#FFD690" points="409.092,636.363 409.092,681.818 363.637,681.818 318.183,681.818 272.728,681.818 
			272.728,727.272 318.183,727.272 363.637,727.272 363.637,772.728 409.092,772.728 409.092,818.182 409.092,863.637 
			454.545,863.637 454.545,818.182 454.545,772.728 454.545,727.272 454.545,681.818 454.545,636.363 		"/>
		<polygon fill="#FFD690" points="363.637,863.637 363.637,909.091 363.637,954.545 409.092,954.545 409.092,909.091 
			409.092,863.637 		"/>
		<rect x="272.728" y="863.637" fill="#FFD690" width="45.455" height="45.454"/>
		<rect x="272.728" y="1000" fill="#FFD690" width="45.455" height="45.455"/>
		<polygon fill="#FFD690" points="227.272,1045.455 227.272,1090.909 227.272,1136.363 272.728,1136.363 272.728,1090.909 
			272.728,1045.455 		"/>
		<polygon fill="#FFD690" points="227.272,909.091 181.818,909.091 181.818,863.637 136.365,863.637 136.365,818.182 
			136.365,772.728 136.365,727.272 181.818,727.272 181.818,681.818 136.365,681.818 90.91,681.818 90.91,727.272 90.91,772.728 
			90.91,818.182 90.91,863.637 90.91,909.091 90.91,954.545 136.365,954.545 136.365,1000 181.818,1000 181.818,1045.455 
			227.272,1045.455 227.272,1000 227.272,954.545 272.728,954.545 272.728,909.091 		"/>
		<g>
			<rect x="772.728" y="181.818" fill="#FFD690" width="45.455" height="45.454"/>
			<rect x="681.817" y="181.818" fill="#FFD690" width="45.455" height="45.454"/>
			<rect x="181.818" y="272.728" fill="#FFD690" width="45.455" height="45.454"/>
			<polygon fill="#FFD690" points="772.728,363.637 772.728,318.182 772.728,272.728 772.728,227.272 727.272,227.272 
				727.272,272.728 727.272,318.182 681.817,318.182 681.817,363.637 636.365,363.637 590.91,363.637 545.455,363.637 
				545.455,409.091 500,409.091 454.545,409.091 454.545,363.637 409.092,363.637 363.637,363.637 318.183,363.637 318.183,318.182 
				272.728,318.182 227.272,318.182 227.272,363.637 272.728,363.637 272.728,409.091 227.272,409.091 181.818,409.091 
				181.818,454.545 181.818,500 227.272,500 227.272,454.545 272.728,454.545 318.183,454.545 363.637,454.545 409.092,454.545 
				454.545,454.545 500,454.545 545.455,454.545 590.91,454.545 636.365,454.545 681.817,454.545 727.272,454.545 772.728,454.545 
				772.728,409.091 818.183,409.091 818.183,363.637 			"/>
			<rect x="136.365" y="363.637" fill="#FFD690" width="45.453" height="45.454"/>
			<rect x="136.365" y="500" fill="#FFD690" width="45.453" height="45.455"/>
		</g>
		<polygon fill="#FFF2DD" points="500,636.363 454.545,636.363 454.545,681.818 500,681.818 545.455,681.818 545.455,636.363 		"/>
		<polygon fill="#FFF2DD" points="454.545,863.637 454.545,909.091 454.545,954.545 500,954.545 500,909.091 500,863.637 		"/>
		<polygon fill="#FFF2DD" points="500,727.272 500,772.728 500,818.182 500,863.637 545.455,863.637 545.455,818.182 
			545.455,772.728 545.455,727.272 		"/>
		<rect x="227.272" y="636.363" fill="#FFD690" width="45.455" height="45.455"/>
	</g>
</g>
</svg>
