<?xml version="1.0" encoding="utf-8"?>
<!-- Generator: Adobe Illustrator 16.0.0, SVG Export Plug-In . SVG Version: 6.00 Build 0)  -->
<!DOCTYPE svg PUBLIC "-//W3C//DTD SVG 1.1//EN" "http://www.w3.org/Graphics/SVG/1.1/DTD/svg11.dtd">
<svg version="1.1" id="Layer_2" xmlns="http://www.w3.org/2000/svg" xmlns:xlink="http://www.w3.org/1999/xlink" x="0px" y="0px"
	 width="70px" height="140px" viewBox="0 0 70 140" enable-background="new 0 0 70 140" xml:space="preserve">
<g>
	<polygon fill="#D01800" points="64.007,37.005 64.007,32.004 53.005,32.004 53.005,26.17 48.005,26.17 48.005,21.002 
		43.004,21.002 43.004,16.002 48.005,16.002 48.005,10.001 59.006,10.001 59.006,5 53.005,5 53.005,0 37.088,0 37.088,5 27.17,5 
		27.17,10.001 21.002,10.001 21.002,16.002 16.002,16.002 16.002,21.002 11.001,21.002 11.001,26.17 11.001,32.004 5,32.004 
		5,37.005 0,37.005 0,140 70,140 70,37.005 	"/>
	<rect x="59.006" y="10.001" fill="#D01800" width="5.001" height="6"/>
</g>
</svg>
