<?xml version="1.0" encoding="utf-8"?>
<!-- Generator: Adobe Illustrator 16.0.0, SVG Export Plug-In . SVG Version: 6.00 Build 0)  -->
<!DOCTYPE svg PUBLIC "-//W3C//DTD SVG 1.1//EN" "http://www.w3.org/Graphics/SVG/1.1/DTD/svg11.dtd">
<svg version="1.1" id="Layer_1" xmlns="http://www.w3.org/2000/svg" xmlns:xlink="http://www.w3.org/1999/xlink" x="0px" y="0px"
	 width="600px" height="600px" viewBox="0 0 600 600" enable-background="new 0 0 600 600" xml:space="preserve">
<g id="beth">
	<g id="Legs">
		<g>
			<polygon fill="#5A4490" stroke="#000000" stroke-width="4" stroke-miterlimit="10" points="292.875,490.5 335.125,576 
				375.125,490.5 			"/>
			<polygon fill="#5A4490" stroke="#000000" stroke-width="4" stroke-miterlimit="10" points="228.318,490.5 270.568,576 
				310.568,490.5 			"/>
		</g>
		<polygon opacity="0.3" enable-background="new    " points="374.423,492 229.059,492 243.884,522 295.832,522 301.964,508.893 
			308.441,522 360.389,522 		"/>
	</g>
	<g id="Body_1_">
		<path fill="#F9E6C7" stroke="#000000" stroke-width="4" stroke-miterlimit="10" d="M352.5,300c0,0,9.5,25,12,30
			s48.496,61.895-28.502,72.197C259,412.499,248,413,238.5,406.5s-64-24.057,5-103.027C312.5,224.501,336,279.5,352.5,300z"/>
	</g>
	<g id="Dress">
		<path fill="#F6CD1D" stroke="#000000" stroke-width="4" stroke-miterlimit="10" d="M261.13,303.473c0,0-0.571,45.527,9.399,55.027
			c9.97,9.5,27.97,19,46.47,6.5s12.945-59.923,12.945-59.923h15.148c0,0,9.905,172.923,124.405,209.423c-44,0-334.5,0-334.5,0
			s109.5-59.333,104.5-222.167C263,283,261.13,303.473,261.13,303.473z"/>
		<path fill="#E76F1E" d="M361.819,394.865H227.666c-0.166,0.503-0.32,1.013-0.488,1.514c-2.271,6.759-4.815,13.366-7.609,19.819
			h150.484c-2.688-6.236-5.219-12.713-7.58-19.436C362.25,396.129,362.037,395.498,361.819,394.865z"/>
		
			<line fill="none" stroke="#000000" stroke-width="4" stroke-miterlimit="10" x1="223.014" y1="402.197" x2="366.574" y2="402.197"/>
		<circle fill="#E76F1E" stroke="#000000" stroke-width="4" stroke-miterlimit="10" cx="298.5" cy="402.021" r="4.688"/>
	</g>
	<g id="Face">
		<path id="Base_3_" fill="#F9E6C7" stroke="#000000" stroke-width="4" stroke-miterlimit="10" d="M266.333,84.667
			c0,0-47,11.667-62,36.333S184,184,193,216c-7-5.667-17-7.333-22-6.667s-14.333,7.333-14.333,17.667s5.333,28,25,33.333
			c14.667,4.667,18.333,0,18.333,0s13,35.667,45.667,53.333S304.5,346.5,354.5,319S410,215.5,408,198s-19-80-41-94
			S307.667,76.333,266.333,84.667z"/>
		<g id="Hair">
			<path fill="#322422" stroke="#000000" stroke-width="4" stroke-miterlimit="10" d="M200,260.333c0,0-3.667,4.667-18.333,0
				c-2.734-0.741-5.181-1.728-7.385-2.893c-1.093,46.651-9.775,88.75-38.615,82.227c16.979,7.026,82.81,25.099,125.684-17.688
				c-5.142-2.586-10.325-5.414-15.684-8.312C213,296.001,200,260.333,200,260.333z"/>
			<path fill="#322422" stroke="#000000" stroke-width="4" stroke-miterlimit="10" d="M428.334,267
				c1.117-23.75,1.411-48.312,0.645-70.609c-0.011-0.281-0.021-0.561-0.029-0.841c-0.062-1.747-0.132-3.479-0.207-5.195
				c-0.008-0.178-0.016-0.356-0.023-0.534c-0.039-0.883-0.081-1.761-0.124-2.635c-0.021-0.396-0.041-0.79-0.062-1.185
				c-0.07-1.365-0.146-2.718-0.226-4.06c-0.028-0.498-0.059-0.995-0.09-1.489c-0.047-0.758-0.095-1.514-0.145-2.264
				c-0.066-1-0.136-1.993-0.208-2.978c-0.049-0.673-0.102-1.34-0.152-2.006c-0.05-0.639-0.101-1.274-0.152-1.906
				c-0.069-0.858-0.143-1.709-0.218-2.554c-0.066-0.771-0.137-1.538-0.209-2.297c-0.053-0.562-0.105-1.121-0.162-1.677
				c-0.103-1.036-0.207-2.064-0.316-3.078c-0.048-0.449-0.1-0.889-0.149-1.333c-0.088-0.787-0.179-1.565-0.271-2.337
				c-0.05-0.416-0.1-0.835-0.15-1.246c-0.129-1.037-0.263-2.057-0.399-3.065c-0.054-0.389-0.106-0.773-0.16-1.158
				c-0.137-0.96-0.273-1.909-0.416-2.841c-0.043-0.279-0.087-0.555-0.13-0.831c-0.144-0.903-0.288-1.791-0.438-2.665
				c-0.051-0.297-0.102-0.596-0.153-0.89c-0.173-0.983-0.35-1.948-0.531-2.893c-0.048-0.242-0.096-0.478-0.144-0.717
				c-0.172-0.869-0.348-1.723-0.527-2.557c-0.03-0.146-0.062-0.295-0.094-0.44c-0.204-0.928-0.415-1.828-0.629-2.711
				c-0.053-0.214-0.104-0.427-0.157-0.638c-0.219-0.878-0.441-1.737-0.673-2.567c-0.032-0.118-0.065-0.229-0.099-0.347
				c-0.217-0.768-0.438-1.512-0.663-2.236c-0.045-0.143-0.089-0.289-0.134-0.43c-0.245-0.77-0.496-1.512-0.753-2.229
				c-0.055-0.151-0.109-0.299-0.164-0.448c-0.268-0.729-0.538-1.44-0.818-2.112c-10-24-37.332-62.667-96.666-62.667
				s-100,4-106.667,36.667c0,0-13.334-8.667-24.667-3.333S163.667,119,167.667,150.333c0.613,4.806,1.604,12.892,2.638,23.091
				c1.034,10.199,2.113,22.512,2.904,35.774c0.474-0.002,0.978,0.017,1.494,0.045c0.112,0.006,0.223,0.012,0.337,0.02
				c0.519,0.035,1.053,0.083,1.605,0.151c0.071,0.008,0.145,0.02,0.216,0.029c0.532,0.068,1.076,0.152,1.631,0.251
				c0.077,0.014,0.152,0.025,0.229,0.04c0.606,0.112,1.225,0.244,1.85,0.395c0.076,0.018,0.153,0.038,0.229,0.057
				c1.295,0.32,2.62,0.723,3.942,1.216c0.06,0.022,0.12,0.045,0.18,0.068c1.346,0.511,2.685,1.115,3.983,1.822
				c1.431,0.778,2.812,1.673,4.093,2.708c-0.347-1.232-0.665-2.477-0.969-3.727c11.57-4.196,23.102-10.973,30.969-21.939
				C245,159.667,238.333,125,238.333,125s30,58,103.333,76.667c28.61,7.283,50.109,8.167,66.651,5.831
				C407.832,234.349,398.035,295.056,354.5,319c-6.514,3.583-12.62,6.436-18.393,8.658c7.781,4.915,16.318,9.482,26.893,12.675
				c35.334,10.667,90,8.001,116-16.666C453,325,425.668,323.666,428.334,267z"/>
		</g>
		<path fill="#322422" stroke="#000000" stroke-width="4" stroke-miterlimit="10" d="M418.438,206.542
			c0,0,26.562-5.875,36.896-21.208c-15.334,4.667-28.609,3.236-32.276,2.902"/>
		<g id="Detail">
			<path fill="none" stroke="#000000" stroke-width="4" stroke-miterlimit="10" d="M306.334,304.473
				C315,306.334,325,304.334,334,292.333"/>
			<path fill="none" stroke="#000000" stroke-width="4" stroke-miterlimit="10" d="M250.795,199.667c0,0,11.333-19,22-13.667"/>
			<g>
				<ellipse fill="#322422" cx="336" cy="231.138" rx="6.055" ry="15.138"/>
				<ellipse cx="336" cy="231.138" rx="2.679" ry="6.698"/>
				<ellipse fill="#FFFFFF" cx="336" cy="224.808" rx="3.028" ry="3.349"/>
			</g>
			<g>
				<ellipse fill="#322422" cx="267.851" cy="231.806" rx="6.055" ry="15.138"/>
				<ellipse cx="267.851" cy="231.806" rx="2.679" ry="6.698"/>
				<ellipse fill="#FFFFFF" cx="267.851" cy="225.475" rx="3.028" ry="3.349"/>
			</g>
			<g opacity="0.2">
				<circle fill="#322422" cx="253.78" cy="260.22" r="2.78"/>
				<circle fill="#322422" cx="264.667" cy="263" r="2.78"/>
				<circle fill="#322422" cx="258.351" cy="271" r="2.78"/>
			</g>
			<g opacity="0.2">
				<circle fill="#322422" cx="346.886" cy="262.83" r="2.779"/>
				<circle fill="#322422" cx="335.999" cy="265.61" r="2.78"/>
				<circle fill="#322422" cx="342.315" cy="273.61" r="2.78"/>
			</g>
		</g>
	</g>
</g>
</svg>
